<?xml version="1.0" standalone="no"?> <!DOCTYPE svg PUBLIC "-//W3C//DTD SVG 20010904//EN" "http://www.w3.org/TR/2001/REC-SVG-20010904/DTD/svg10.dtd"> <svg version="1.0" xmlns="http://www.w3.org/2000/svg" width="600.000000pt" height="600.000000pt" viewBox="0 0 600.000000 600.000000" preserveAspectRatio="xMidYMid meet"> <g transform="translate(0.000000,600.000000) scale(0.100000,-0.100000)" fill="#ff0000" stroke="none"> <path d="M3350 5380 c0 -5 17 -12 38 -15 159 -26 271 -51 361 -82 131 -43 323 -132 315 -145 -4 -7 -9 -6 -13 0 -10 17 -199 89 -335 127 -261 73 -617 103 -856 71 -69 -9 -149 -21 -179 -27 -52 -11 -151 -19 -151 -13 0 2 21 10 48 18 33 10 39 15 22 15 -41 1 -299 -66 -328 -86 -15 -9 -71 -34 -126 -55 -93 -35 -306 -138 -334 -160 -7 -6 -11 -13 -8 -15 4 -5 19 2 191 90 61 30 124 58 140 61 17 3 23 3 15 0 -25 -11 -171 -85 -240 -122 -208 -112 -442 -305 -648 -532 -169 -187 -257 -318 -308 -460 -14 -41 -51 -128 -81 -193 -30 -65 -70 -166 -89 -225 -35 -107 -44 -156 -18 -92 l14 35 -5 -35 c-3 -19 -8 -60 -10 -90 -7 -81 -12 -125 -30 -230 -23 -134 -30 -364 -16 -501 18 -168 44 -288 110 -486 90 -273 204 -492 358 -686 43 -55 89 -118 103 -140 21 -37 110 -130 250 -262 67 -63 145 -116 240 -165 47 -24 101 -53 121 -66 77 -48 223 -116 227 -105 2 6 19 11 38 11 51 0 41 14 -23 34 -76 23 -281 130 -324 167 -29 25 -18 21 63 -21 53 -28 107 -52 120 -54 13 -1 31 -6 41 -11 10 -4 20 -5 23 -3 2 3 -55 36 -128 73 -152 77 -185 99 -323 209 -125 100 -155 128 -155 143 0 7 -6 13 -14 13 -20 0 -204 207 -229 257 -12 24 -25 43 -29 43 -17 0 -6 -35 25 -79 45 -63 50 -71 39 -71 -9 0 -127 172 -156 229 -10 18 -15 38 -13 44 2 7 11 -4 21 -24 18 -38 62 -86 71 -77 6 6 -37 86 -81 149 -56 81 -133 256 -181 413 -25 83 -47 165 -48 181 -2 38 -23 123 -37 152 -6 11 -7 27 -3 35 3 7 0 5 -8 -5 -12 -14 -13 -26 -4 -60 5 -23 14 -46 18 -51 5 -6 9 -15 9 -20 0 -6 -5 -4 -11 4 -8 12 -9 11 -6 -5 2 -11 9 -19 15 -18 15 4 15 -7 2 -42 -7 -17 -7 -24 0 -20 6 3 11 -4 11 -17 2 -32 3 -37 22 -97 9 -30 15 -57 12 -59 -3 -3 0 -11 6 -19 7 -7 13 -23 15 -36 12 -69 17 -87 26 -87 5 0 6 -4 3 -10 -3 -5 -2 -10 3 -10 6 0 8 -10 4 -22 -3 -14 -2 -19 6 -14 10 6 15 -3 11 -16 0 -2 6 -16 15 -32 8 -16 12 -34 8 -40 -4 -7 -8 -3 -10 9 -2 11 -11 28 -20 38 -8 9 -12 17 -9 17 4 0 -2 15 -12 33 -17 31 -28 63 -38 117 -2 13 -8 27 -12 30 -5 3 -12 16 -16 29 -5 18 -4 22 6 17 8 -5 8 -2 -1 6 -9 7 -14 21 -12 32 2 10 0 16 -6 12 -5 -3 -12 3 -15 14 -3 11 -1 18 4 15 4 -3 2 7 -6 22 -8 15 -15 36 -15 46 0 11 -4 15 -12 11 -8 -5 -9 -2 -5 9 3 9 -2 42 -12 74 -10 32 -19 72 -19 88 0 17 -5 50 -11 75 -14 66 -25 307 -16 384 5 53 9 65 20 56 13 -11 21 46 30 226 3 44 9 93 14 109 l9 30 2 -40 c2 -29 5 -19 11 35 8 68 22 142 36 195 l6 20 8 -20 c7 -19 8 -18 8 3 1 13 10 44 20 70 10 26 34 85 52 132 18 47 48 117 68 155 48 94 48 94 15 55 -16 -19 -40 -56 -53 -82 -13 -27 -28 -48 -33 -48 -6 0 -8 -6 -5 -14 3 -7 0 -24 -7 -37 -6 -13 -20 -51 -31 -84 -10 -33 -21 -62 -25 -65 -9 -6 -54 -92 -56 -105 0 -5 -8 -26 -16 -45 l-16 -35 5 40 c3 22 10 48 15 59 7 13 6 21 -2 26 -8 5 -7 16 4 41 l16 34 -6 -32 c-4 -26 -3 -32 9 -27 9 3 13 13 9 26 -3 12 -1 19 5 15 5 -4 8 6 5 25 -3 21 -1 29 7 24 6 -4 9 -2 5 7 -5 14 30 87 47 98 5 3 10 17 11 31 1 15 6 24 10 22 4 -3 9 1 10 8 2 25 5 33 23 73 10 22 18 47 19 55 2 22 76 170 85 170 4 0 14 12 22 28 31 61 97 142 116 142 8 0 12 4 9 8 -5 8 14 32 98 121 22 25 40 48 38 53 -1 4 2 7 6 6 13 -5 111 95 105 106 -4 5 -1 6 6 1 8 -4 18 1 27 14 9 12 21 18 27 15 7 -4 9 -4 5 0 -8 9 71 82 84 78 5 -1 7 2 3 8 -3 5 -2 10 3 10 5 0 18 8 30 18 54 46 62 51 62 44 0 -4 5 1 11 11 5 9 17 17 24 17 8 0 15 5 15 11 0 5 5 7 10 4 7 -4 7 -11 2 -18 -5 -7 -6 -21 -2 -32 7 -18 9 -18 15 -3 22 54 489 282 693 338 448 122 946 106 1383 -46 443 -154 894 -504 1158 -899 182 -271 300 -563 352 -867 11 -67 24 -141 29 -163 l8 -40 2 45 3 45 12 -60 13 -60 1 100 c1 104 -15 191 -63 360 -32 111 -99 295 -107 295 -4 0 4 -35 17 -77 13 -43 22 -82 21 -88 -2 -5 -12 15 -21 45 -10 30 -29 75 -42 99 -13 24 -24 52 -24 62 0 32 -45 120 -124 243 -42 65 -75 121 -73 123 9 8 115 -158 174 -272 34 -66 63 -115 63 -108 0 7 -22 57 -50 112 -27 55 -50 104 -50 109 0 28 -135 210 -268 359 -40 46 -70 83 -65 83 24 0 -191 188 -297 260 -85 58 -100 71 -94 81 3 5 -7 14 -22 19 -15 6 -68 36 -118 67 -287 177 -561 290 -810 333 -135 23 -146 24 -146 10z m-780 -111 c0 -16 -23 -21 -46 -9 -13 7 -21 16 -19 20 6 9 65 0 65 -11z m-53 -13 c4 -3 -5 -6 -18 -6 -14 0 -30 -5 -35 -10 -6 -6 -24 -12 -41 -13 -17 -1 -29 -5 -27 -9 3 -4 -8 -10 -23 -13 -15 -4 -39 -11 -53 -17 -14 -7 -27 -12 -30 -13 -28 -7 -50 -18 -50 -26 0 -6 -9 -7 -21 -4 -15 5 -19 4 -15 -4 7 -10 2 -12 -36 -15 -7 -1 -17 -7 -21 -13 -4 -7 -22 -13 -38 -13 -17 0 -28 -4 -24 -9 7 -13 -26 -30 -44 -23 -9 3 -11 0 -6 -8 6 -10 2 -12 -13 -8 -12 4 -20 2 -17 -2 7 -12 -28 -30 -57 -30 -14 0 -19 -3 -11 -8 8 -5 2 -12 -17 -20 -16 -8 -33 -14 -37 -14 -4 -1 -14 -8 -22 -15 -22 -23 -25 -6 -3 17 12 13 25 19 33 15 7 -5 10 -4 5 3 -3 6 3 13 14 17 11 4 18 11 15 16 -3 5 1 6 9 3 9 -3 16 -2 16 4 0 5 7 13 16 16 10 4 13 2 9 -7 -4 -6 0 -4 8 6 8 9 19 17 26 17 6 0 11 5 11 11 0 7 10 9 28 5 20 -5 23 -4 12 4 -8 5 -13 10 -10 11 3 0 14 3 25 6 11 2 28 5 38 6 9 1 20 9 23 19 3 10 12 18 20 18 8 0 14 4 14 10 0 6 3 9 8 8 11 -4 102 36 102 44 0 4 6 5 14 2 7 -3 16 2 20 11 3 10 12 15 20 12 7 -3 25 1 39 8 15 7 34 15 44 18 24 6 92 1 100 -7z m1946 -344 c31 -25 55 -47 52 -50 -3 -3 -18 6 -33 19 -15 14 -46 38 -69 53 -24 16 -43 30 -43 32 0 10 42 -15 93 -54z m-2633 33 c0 -9 -6 -12 -17 -8 -12 5 -14 3 -8 -7 6 -9 4 -11 -5 -5 -10 6 -9 11 5 22 23 16 25 16 25 -2z m3000 -367 c0 -6 -7 -5 -15 2 -8 7 -15 17 -15 22 0 6 7 5 15 -2 8 -7 15 -17 15 -22z m-3810 -2664 c0 -8 -4 -12 -10 -9 -5 3 -10 13 -10 21 0 8 5 12 10 9 6 -3 10 -13 10 -21z m35 -70 c9 -14 14 -33 10 -42 -5 -13 -10 -9 -25 16 -11 18 -20 37 -20 42 0 18 18 10 35 -16z m275 -410 c0 -8 5 -14 10 -14 6 0 10 -7 10 -16 0 -8 4 -13 9 -9 5 3 12 1 15 -4 4 -5 1 -13 -5 -17 -6 -4 -16 0 -21 9 -4 9 -14 22 -21 29 -14 15 -19 50 -6 42 5 -3 9 -12 9 -20z m89 -85 c17 -22 20 -34 12 -42 -6 -6 -12 -9 -13 -6 -2 2 -14 16 -27 31 -12 14 -20 31 -16 37 10 17 20 13 44 -20z m35 -44 c-4 -8 -1 -15 6 -15 6 0 8 -5 4 -12 -5 -8 -2 -9 9 -5 9 3 20 1 24 -6 15 -23 133 -116 208 -162 77 -48 80 -52 67 -72 -5 -8 -25 3 -65 37 -31 27 -72 59 -90 72 -17 12 -37 29 -44 38 -7 8 -13 12 -13 8 0 -4 -16 9 -37 28 -20 19 -38 32 -41 30 -2 -3 -14 7 -27 22 -17 20 -20 30 -13 40 14 16 19 15 12 -3z"/> <path d="M2880 5229 c-92 -6 -157 -15 -178 -25 -18 -9 -59 -18 -90 -21 -164 -15 -508 -146 -702 -266 -36 -22 -81 -49 -100 -59 -19 -10 -30 -18 -25 -19 6 0 18 -2 27 -4 10 -2 34 8 53 21 20 13 38 24 41 24 3 0 18 8 32 19 43 30 122 72 122 65 0 -4 8 -1 18 8 16 13 74 41 80 39 1 -1 16 6 33 15 17 9 43 18 58 20 14 3 40 11 56 18 78 35 108 46 130 46 13 0 26 4 29 8 2 4 19 9 37 10 18 1 37 6 43 11 17 12 48 22 42 13 -3 -5 10 -8 29 -8 18 1 31 4 28 9 -3 6 5 8 32 7 3 0 18 6 33 14 50 25 339 37 536 21 106 -8 207 -23 279 -41 32 -8 62 -12 67 -9 6 3 10 3 10 -2 0 -4 12 -9 26 -10 15 0 36 -6 48 -11 24 -12 153 -55 176 -59 9 -1 42 -14 73 -28 32 -14 64 -25 73 -25 8 0 13 -4 10 -9 -3 -5 1 -12 10 -15 10 -4 13 -2 8 6 -4 7 8 1 27 -12 19 -14 34 -23 34 -21 0 7 99 -52 107 -64 4 -5 8 -6 8 -2 0 11 60 -25 60 -36 0 -4 4 -6 9 -3 5 3 14 -1 21 -9 7 -8 19 -15 27 -15 8 0 11 -5 7 -12 -4 -6 -3 -8 2 -5 13 7 96 -68 86 -78 -4 -5 -1 -5 6 -1 13 8 50 -16 105 -67 15 -14 27 -23 27 -19 0 4 17 -12 39 -35 21 -23 41 -40 45 -36 3 3 6 1 6 -5 0 -7 27 -39 60 -71 33 -33 60 -65 60 -72 0 -7 3 -10 6 -6 7 6 44 -29 44 -42 0 -5 7 -15 17 -22 9 -8 31 -37 49 -65 18 -29 39 -58 46 -65 26 -27 52 -74 50 -88 -2 -7 1 -10 7 -7 5 4 13 -4 17 -16 4 -13 9 -25 13 -28 14 -12 41 -82 35 -92 -4 -7 -2 -8 4 -4 7 4 17 -4 24 -21 7 -15 17 -31 23 -35 5 -4 6 -8 2 -8 -5 0 0 -16 12 -36 12 -19 21 -41 21 -49 0 -7 3 -15 8 -17 9 -4 92 -256 92 -280 0 -10 4 -18 8 -18 4 0 9 -16 10 -37 2 -20 5 -40 8 -45 3 -5 14 -61 24 -126 26 -166 25 -483 -1 -647 -11 -66 -24 -128 -29 -137 -6 -11 -6 -18 -1 -18 11 0 -3 -58 -18 -73 -5 -5 -7 -16 -4 -23 3 -8 -1 -14 -8 -14 -11 0 -11 -2 -1 -9 10 -6 10 -10 -3 -21 -8 -7 -15 -23 -15 -35 0 -12 -7 -39 -15 -59 -8 -19 -14 -39 -13 -43 2 -12 -13 -46 -30 -65 -13 -15 -13 -18 -1 -18 9 0 10 -3 4 -8 -13 -9 -39 -64 -36 -76 1 -5 -5 -6 -14 -2 -9 3 -13 2 -10 -4 3 -5 -3 -31 -14 -56 -12 -26 -21 -55 -21 -66 0 -11 -13 -33 -30 -49 -19 -19 -27 -35 -23 -46 4 -11 3 -14 -6 -9 -6 4 -10 4 -9 -1 3 -12 -40 -91 -62 -113 -11 -11 -20 -25 -20 -31 0 -5 -5 -7 -12 -3 -7 4 -8 3 -4 -5 4 -6 0 -14 -8 -17 -9 -3 -16 -12 -16 -19 0 -7 -7 -15 -15 -19 -8 -3 -15 -11 -15 -18 0 -8 -9 -20 -21 -28 -12 -8 -25 -25 -30 -38 -5 -13 -13 -20 -19 -17 -5 3 -10 2 -10 -4 0 -6 -22 -33 -49 -61 -27 -27 -46 -50 -42 -50 3 0 -11 -11 -30 -25 -20 -13 -39 -31 -42 -40 -4 -8 -14 -15 -22 -15 -9 0 -14 -4 -10 -9 3 -5 0 -13 -6 -17 -8 -4 -9 -3 -5 4 4 7 5 12 1 12 -6 0 -102 -77 -143 -115 -14 -13 -30 -21 -35 -18 -6 4 -7 1 -2 -7 6 -10 4 -12 -8 -7 -10 4 -16 2 -14 -6 1 -7 -3 -11 -9 -10 -7 1 -32 -20 -58 -48 -51 -55 -159 -124 -182 -115 -9 3 -12 1 -9 -4 3 -5 -7 -15 -22 -22 -15 -6 -36 -18 -45 -26 -10 -9 -18 -12 -18 -7 0 4 -12 0 -26 -10 -25 -16 -28 -16 -84 9 -32 14 -63 26 -69 26 -6 0 -11 5 -11 10 0 6 -11 10 -25 10 -14 0 -25 4 -25 10 0 5 -10 14 -21 21 -17 9 -20 8 -14 -2 11 -17 -82 48 -119 83 -18 17 -31 41 -32 58 -1 16 -5 34 -9 42 -3 7 0 5 8 -5 8 -10 13 -28 11 -40 -2 -12 -1 -16 2 -9 4 9 9 10 19 2 10 -8 22 -7 47 6 48 24 78 50 70 59 -4 4 0 6 8 3 9 -3 28 11 47 35 32 41 70 61 54 29 -13 -27 -32 -85 -35 -110 -5 -36 10 -35 28 2 29 61 47 153 44 223 l-3 68 -32 -68 c-39 -82 -185 -235 -215 -225 -30 10 -56 194 -44 311 l8 67 103 80 c206 158 274 238 335 389 27 66 27 66 88 87 76 26 129 62 191 130 147 161 203 334 155 482 -15 47 -15 54 1 99 9 26 19 89 21 138 l4 90 -25 -95 c-33 -128 -118 -294 -199 -391 -64 -75 -246 -239 -265 -239 -6 0 5 20 24 45 94 124 165 349 165 524 0 64 -2 69 -36 102 -70 66 -227 255 -287 346 -34 51 -63 90 -65 88 -14 -14 106 -311 153 -378 27 -39 16 -39 -39 0 -198 142 -370 376 -446 606 -12 38 -24 66 -26 64 -3 -2 -1 -54 4 -116 5 -61 5 -155 1 -210 -8 -105 -28 -225 -37 -217 -3 3 -7 41 -9 83 -4 95 -41 252 -83 359 -18 43 -33 80 -34 81 -1 2 0 -72 2 -162 4 -128 1 -191 -13 -276 -10 -60 -21 -108 -25 -107 -5 2 -73 39 -154 83 l-145 80 -31 72 c-16 39 -35 95 -42 123 -17 73 -25 49 -18 -50 3 -47 5 -86 4 -88 -1 -2 -29 13 -62 33 -33 19 -65 35 -70 35 -15 0 -22 35 -28 151 -4 64 -2 144 5 203 7 54 11 100 8 102 -7 7 -103 -284 -122 -368 -27 -118 -37 -259 -25 -355 6 -48 15 -89 21 -91 5 -2 9 -8 9 -13 0 -26 -26 12 -61 87 -59 128 -79 218 -86 383 -6 150 -12 159 -32 51 -7 -36 -22 -93 -32 -128 -42 -136 -59 -228 -59 -320 0 -53 -4 -91 -9 -88 -12 8 -47 126 -62 209 -6 38 -9 111 -7 163 2 52 0 94 -4 94 -4 0 -15 -26 -23 -57 -9 -32 -34 -112 -56 -178 -57 -172 -81 -299 -81 -430 1 -193 56 -375 153 -497 16 -20 29 -39 29 -43 0 -10 -43 17 -121 76 -188 142 -311 356 -359 619 l-20 105 4 -130 c2 -102 7 -143 24 -189 19 -51 20 -65 10 -103 -14 -59 -5 -164 22 -235 60 -161 217 -320 348 -353 44 -11 44 -12 81 -101 62 -150 117 -214 301 -348 158 -115 146 -100 153 -191 8 -97 -11 -288 -26 -264 -1 2 -16 24 -33 49 -17 25 -44 69 -59 98 -15 28 -29 52 -32 52 -3 0 -3 -25 1 -55 7 -65 37 -147 61 -172 17 -16 17 -15 11 18 -3 19 -3 27 2 19 4 -8 23 -17 42 -19 42 -4 43 -4 36 -29 -9 -28 -42 -63 -50 -54 -4 4 -7 3 -6 -3 5 -25 -5 -35 -72 -70 -40 -20 -102 -52 -136 -71 -35 -19 -68 -32 -72 -29 -5 3 -10 0 -12 -6 -2 -6 -26 -13 -52 -16 -33 -4 -47 -2 -43 4 4 6 -8 14 -28 17 -22 5 -33 11 -29 18 4 7 3 8 -4 4 -6 -4 -26 1 -44 11 -18 9 -40 18 -48 19 -8 2 -16 8 -18 13 -2 6 -8 11 -13 11 -20 0 -99 43 -99 54 0 6 -9 13 -20 14 -46 4 -51 6 -46 18 3 9 -1 11 -11 7 -12 -5 -14 -3 -8 7 5 8 4 11 -2 7 -6 -4 -18 2 -28 13 -10 11 -22 17 -27 14 -5 -3 -8 2 -6 11 2 10 -4 20 -12 22 -13 4 -13 3 0 -7 13 -10 12 -11 -3 -6 -10 3 -21 6 -23 6 -3 0 -2 5 1 10 3 5 0 10 -8 10 -8 0 -26 11 -41 25 -14 13 -26 22 -26 19 0 -6 -26 15 -52 44 -12 12 -28 22 -35 22 -7 0 -13 7 -13 15 0 8 -4 15 -8 15 -12 0 -92 79 -92 90 0 6 -7 10 -16 10 -8 0 -12 5 -9 10 3 6 1 10 -5 10 -11 0 -40 24 -40 33 0 3 -22 29 -49 58 -27 29 -47 58 -44 63 3 5 2 6 -4 3 -5 -3 -17 7 -27 24 -9 16 -21 29 -26 29 -5 0 -14 16 -20 35 -6 19 -16 38 -22 41 -7 5 -8 2 -3 -6 6 -9 4 -11 -4 -6 -7 5 -10 15 -7 23 3 8 1 11 -4 8 -6 -3 -10 -2 -10 3 0 4 -13 22 -30 39 -16 17 -31 39 -33 49 -1 11 -14 37 -27 59 -14 22 -24 43 -22 47 1 5 -2 8 -7 8 -5 0 -16 20 -25 45 -8 25 -22 52 -30 61 -9 8 -16 24 -16 35 0 11 -7 27 -15 35 -8 9 -18 27 -21 42 -7 29 -38 105 -55 136 -8 13 -7 16 1 11 9 -6 9 -2 1 14 -7 11 -8 21 -4 21 4 0 3 4 -3 8 -6 4 -23 57 -38 117 -15 61 -34 114 -42 118 -8 5 -12 12 -9 18 4 5 1 9 -4 9 -14 0 -14 -15 -1 -38 5 -9 25 -81 44 -159 37 -149 78 -262 145 -403 89 -187 150 -281 291 -453 158 -193 262 -290 468 -436 56 -41 102 -77 102 -82 0 -5 6 -9 14 -9 8 0 52 -20 98 -45 46 -24 131 -65 188 -90 l105 -46 135 61 c280 127 326 187 336 440 2 57 4 106 4 108 0 2 12 -5 28 -16 91 -64 274 -143 331 -144 46 0 166 49 272 113 45 27 86 49 91 49 4 0 8 5 8 11 0 13 -41 8 -58 -9 -8 -7 -18 -9 -24 -6 -6 4 -17 -1 -24 -11 -8 -10 -20 -15 -29 -11 -9 3 -14 2 -11 -3 6 -9 -69 -54 -96 -58 -9 -2 -32 -12 -50 -23 -21 -12 -41 -17 -57 -13 -16 4 -22 2 -17 -5 7 -12 -72 13 -144 46 -24 11 -49 18 -55 14 -5 -3 -4 1 2 9 11 13 9 15 -10 14 -30 -3 -53 15 -35 28 9 6 7 7 -6 3 -11 -4 -33 2 -53 14 -19 11 -39 18 -44 15 -5 -4 -9 -1 -9 4 0 6 -9 2 -20 -9 -28 -28 -36 -25 -35 12 1 18 -5 43 -12 56 -16 27 2 30 19 3 6 -10 18 -17 25 -14 7 3 13 0 13 -7 0 -6 4 -9 9 -6 5 3 14 -1 21 -9 7 -8 19 -15 27 -15 8 0 45 -18 82 -40 37 -22 75 -40 85 -40 9 0 14 -4 11 -10 -3 -5 1 -10 11 -10 34 0 93 -23 87 -34 -4 -6 0 -5 9 2 9 7 32 13 52 14 20 1 36 4 36 7 0 4 9 7 19 8 11 1 38 13 60 28 23 14 55 28 72 32 16 3 27 8 24 11 -6 6 55 36 68 34 4 -1 7 2 7 7 0 5 18 18 40 30 35 18 41 19 46 6 11 -28 -5 -83 -24 -81 -15 1 -17 -11 -20 -87 -5 -168 33 -280 118 -342 27 -20 111 -64 187 -99 l137 -64 76 38 c91 46 310 167 328 182 22 19 5 20 -28 3 -61 -32 -41 -6 31 41 41 26 104 71 141 100 37 30 71 54 76 54 15 0 53 46 45 55 -5 4 -3 5 3 2 15 -9 213 197 285 297 17 25 38 47 45 50 8 3 14 12 14 20 0 8 3 16 8 18 4 2 22 34 40 72 18 37 35 66 38 63 3 -3 1 -16 -6 -29 -11 -22 -11 -22 5 -3 8 11 20 38 26 60 15 59 22 78 82 215 224 518 241 1110 45 1645 -71 195 -227 470 -357 629 -475 580 -1188 884 -1961 835z m-224 -1636 c-11 -11 -17 4 -9 23 7 18 8 18 11 1 2 -10 1 -21 -2 -24z m4 -323 c1 -112 -2 -206 -7 -207 -5 -2 -17 3 -28 11 -38 27 -29 364 13 491 11 35 20 -78 22 -295z m848 161 c18 -51 102 -170 178 -250 41 -43 74 -82 74 -85 0 -3 -10 -6 -22 -6 -28 0 -99 -21 -190 -56 l-68 -26 -37 23 c-21 12 -39 23 -40 24 -2 1 6 24 17 52 36 96 61 208 61 281 1 76 10 91 27 43z m-160 -113 c7 -57 12 -133 12 -170 l0 -67 -37 21 c-21 12 -39 22 -40 23 -1 0 4 25 12 55 8 30 18 97 21 148 4 50 10 92 14 92 3 0 12 -46 18 -102z m-610 81 c18 -6 29 -16 25 -22 -3 -6 -1 -7 5 -3 6 4 25 0 42 -9 22 -11 35 -13 49 -5 21 11 37 -2 26 -19 -3 -5 0 -13 6 -17 8 -5 9 -3 4 7 -5 8 10 -4 33 -27 22 -22 82 -62 131 -89 50 -26 88 -52 84 -58 -3 -5 0 -8 8 -5 7 2 29 -3 48 -13 20 -10 38 -13 39 -8 2 5 9 9 14 9 6 0 9 -3 5 -6 -16 -16 77 -75 101 -64 2 0 12 -10 23 -25 12 -14 46 -37 77 -52 31 -14 59 -30 62 -34 11 -16 79 -57 114 -69 19 -6 38 -16 41 -21 4 -5 58 -9 121 -9 119 0 139 -5 182 -46 14 -12 32 -20 40 -16 12 4 14 1 9 -13 -6 -15 -5 -16 8 -5 8 7 15 8 15 2 0 -5 -7 -16 -16 -23 -14 -11 -19 -10 -33 6 -9 11 -23 21 -31 23 -8 2 -21 9 -28 15 -44 36 -108 4 -96 -49 19 -81 8 -190 -22 -215 -7 -6 -11 -15 -8 -20 3 -5 -2 -9 -10 -9 -9 0 -16 -6 -16 -14 0 -16 -38 -26 -87 -24 -22 1 -33 6 -33 16 0 9 -3 12 -7 9 -11 -11 -32 14 -26 30 4 10 2 14 -4 10 -6 -4 -16 6 -23 22 -14 35 -45 45 -80 27 -14 -7 -50 -26 -80 -41 -49 -25 -106 -61 -120 -75 -3 -3 -14 -10 -25 -16 -64 -34 -91 -50 -103 -62 -8 -7 -18 -9 -24 -6 -6 4 -8 3 -5 -3 3 -5 -32 -29 -79 -53 -46 -25 -84 -47 -84 -51 0 -3 -29 -19 -65 -35 -35 -16 -65 -35 -65 -41 0 -7 -11 -15 -25 -19 -29 -7 -89 -37 -110 -54 -11 -10 -15 -10 -15 -1 0 7 -4 9 -10 6 -16 -10 -21 36 -18 158 2 64 1 117 -3 117 -3 0 -5 16 -6 35 -2 66 -20 73 -102 37 -57 -25 -114 -10 -149 37 -28 38 -45 139 -37 215 8 72 -6 93 -52 81 -16 -4 -38 -7 -50 -8 -11 -1 -19 -5 -17 -8 2 -3 -8 -11 -22 -18 -14 -6 -23 -15 -19 -20 3 -5 1 -12 -4 -16 -6 -3 -15 3 -20 14 -12 22 10 48 30 35 8 -4 9 -3 5 4 -4 7 -4 12 1 12 4 0 21 11 36 24 37 32 131 43 219 27 35 -7 72 -13 83 -15 11 -2 30 -6 43 -10 17 -6 28 -2 42 14 11 13 17 27 13 33 -11 17 -12 57 -2 57 6 0 8 4 5 9 -4 5 -1 11 5 13 8 3 6 14 -6 37 -11 22 -14 43 -10 60 4 14 8 78 9 141 3 160 5 210 10 210 1 0 17 -5 34 -11z m-308 -92 c6 -32 29 -92 50 -134 l38 -75 -46 6 c-24 3 -60 6 -78 6 -32 0 -34 2 -34 33 0 17 10 84 21 147 23 122 27 124 49 17z m-190 -176 c15 -28 13 -31 -17 -31 -16 0 -35 -5 -43 -10 -11 -7 -2 -10 32 -10 l47 0 31 -59 c18 -33 42 -69 55 -81 l23 -22 -5 82 -6 81 34 -5 c163 -27 157 -25 200 -69 l40 -42 -6 33 c-4 17 -3 32 2 32 23 -1 35 -22 38 -64 2 -41 1 -46 -14 -41 -50 21 -174 35 -157 18 4 -4 33 -13 64 -19 86 -18 112 -31 112 -54 0 -24 6 -24 -60 2 -61 23 -213 30 -322 15 -62 -9 -79 -27 -25 -27 29 -1 26 -4 -38 -36 -38 -20 -72 -38 -75 -40 -2 -3 7 -15 22 -27 14 -12 45 -52 69 -89 24 -38 46 -68 49 -68 4 0 -2 27 -13 60 -11 32 -17 66 -13 75 6 16 114 70 123 61 3 -3 -1 -21 -7 -42 -30 -90 12 -257 75 -298 55 -36 141 -29 180 14 10 11 22 20 26 20 5 0 10 -84 11 -187 l3 -187 27 -15 c36 -20 27 -24 492 253 208 124 380 225 380 224 16 -28 29 -66 27 -78 -2 -18 48 -50 97 -61 45 -10 103 12 137 53 50 59 69 185 40 267 -16 47 -11 49 48 20 73 -37 77 -43 62 -97 -7 -26 -16 -56 -21 -67 -16 -41 26 7 66 74 21 36 49 72 61 80 l23 13 -30 16 c-16 9 -54 26 -84 39 l-55 23 44 0 c75 0 34 17 -70 30 -67 8 -115 8 -159 1 -49 -8 -67 -7 -82 3 -24 17 -17 22 45 31 30 5 45 11 39 17 -5 5 -35 5 -75 -2 -60 -9 -70 -8 -112 12 -25 12 -45 25 -45 28 0 4 46 21 103 38 179 54 163 54 232 6 62 -43 157 -94 175 -94 6 0 -1 18 -15 40 -14 22 -25 42 -25 46 0 3 -9 19 -21 35 -18 25 -18 30 -5 35 11 4 38 -17 85 -67 l70 -74 1 -79 c1 -195 -99 -448 -236 -596 -31 -33 -50 -60 -43 -60 28 0 176 80 211 114 43 42 48 43 48 14 0 -17 -3 -19 -9 -9 -12 18 -22 -1 -71 -133 -82 -221 -142 -317 -266 -427 -139 -121 -417 -287 -571 -340 -52 -17 -55 -17 -110 2 -72 24 -324 155 -406 211 -184 124 -297 228 -341 317 -13 25 -38 84 -56 131 -18 47 -43 111 -55 143 -24 59 -20 67 18 42 23 -15 132 -55 150 -55 5 0 -18 29 -51 65 -106 113 -170 243 -206 417 -27 130 -18 266 30 448 35 132 35 132 50 62 7 -34 18 -71 24 -81z m1740 -23 c0 -5 -7 -8 -15 -8 -15 0 -45 49 -45 72 1 13 59 -51 60 -64z m440 -494 c0 -117 -58 -239 -167 -347 -57 -58 -165 -126 -171 -109 -1 4 13 54 33 111 34 101 36 105 127 200 51 54 109 125 128 158 19 34 38 59 42 57 5 -3 8 -34 8 -70z m-2560 33 c0 -38 167 -235 245 -288 27 -19 36 -36 56 -103 15 -55 32 -89 51 -108 25 -24 26 -28 10 -28 -11 0 -22 8 -24 18 -3 10 -26 24 -57 35 -101 35 -230 183 -277 316 -24 67 -32 171 -14 171 6 0 10 -6 10 -13z m349 -344 c2 -2 -5 -3 -16 -3 -11 0 -20 7 -20 15 0 12 3 12 16 3 9 -7 18 -14 20 -15z"/> <path d="M3021 1868 c-51 -19 -54 -42 -5 -31 50 10 175 10 237 -1 55 -10 65 5 15 24 -49 18 -206 23 -247 8z"/> <path d="M3395 4982 c-16 -2 -48 -8 -70 -14 -22 -6 -46 -10 -54 -9 -8 1 -10 -2 -5 -10 5 -9 2 -10 -10 -6 -9 4 -24 0 -34 -8 -9 -7 -37 -30 -61 -50 -67 -55 -78 -59 -107 -40 -14 9 -22 20 -19 25 3 6 0 7 -8 5 -7 -3 -22 3 -32 15 -10 11 -24 20 -32 20 -8 0 -11 5 -7 11 4 8 -1 9 -16 4 -14 -4 -20 -3 -16 3 6 10 -23 26 -32 17 -3 -3 1 -5 8 -5 7 0 11 -3 8 -6 -4 -3 -17 1 -30 10 -52 34 -308 12 -308 -26 0 -6 9 -8 23 -3 12 3 68 9 124 12 80 4 114 2 155 -11 67 -22 153 -80 182 -123 l23 -33 31 39 c41 51 123 105 203 131 56 19 78 21 169 16 58 -3 121 -8 140 -12 34 -6 34 -5 13 10 -33 25 -167 46 -238 38z"/> <path d="M3490 4891 c-89 -28 -233 -111 -219 -125 3 -4 21 0 40 8 137 57 388 5 607 -125 84 -51 131 -88 223 -179 168 -167 253 -305 374 -605 115 -284 189 -387 330 -456 62 -30 78 -34 152 -34 65 0 86 4 100 18 11 11 13 17 5 17 -8 0 -10 5 -6 12 4 7 3 8 -5 4 -6 -4 -9 -10 -7 -14 7 -12 -98 -13 -145 -2 -24 6 -49 12 -54 13 -6 1 -28 13 -48 25 -21 12 -42 22 -46 22 -10 0 -69 67 -92 105 -11 17 -19 26 -19 20 -1 -14 -109 207 -110 223 0 6 -4 12 -10 12 -5 0 -9 3 -8 8 1 4 -4 23 -11 42 -8 19 -15 43 -17 53 -2 9 -17 44 -34 76 -16 32 -26 61 -23 65 4 3 2 6 -4 6 -6 0 -16 15 -24 33 -7 17 -24 50 -39 72 -15 22 -32 54 -38 70 -7 17 -26 45 -43 63 -16 17 -27 32 -24 32 4 0 -6 13 -22 30 -47 49 -54 59 -51 74 2 8 -1 14 -7 13 -5 -1 -9 -5 -7 -9 5 -18 -7 -6 -33 32 -15 22 -33 40 -39 40 -6 0 -34 21 -62 48 -27 26 -68 56 -89 67 -22 11 -42 23 -43 28 -2 4 -8 5 -13 1 -5 -3 -9 0 -9 7 0 7 -3 9 -6 6 -4 -4 -15 3 -26 15 -10 12 -21 18 -24 15 -4 -4 -18 3 -32 13 -13 11 -31 20 -38 20 -8 0 -14 5 -14 11 0 6 -9 8 -21 4 -13 -4 -19 -3 -16 2 3 5 -40 20 -96 33 -56 13 -110 28 -121 33 -12 6 -16 6 -12 -1 4 -7 -3 -8 -21 -3 -16 4 -36 7 -46 5 -9 -1 -14 2 -11 8 3 5 15 8 25 5 11 -3 19 -1 19 3 0 5 32 16 72 25 39 9 79 20 87 25 29 17 -91 10 -149 -9z"/> <path d="M2584 4876 c10 -8 42 -18 72 -22 30 -3 51 -10 48 -16 -3 -5 0 -9 7 -7 8 1 22 1 33 0 15 -1 16 -4 6 -16 -10 -12 -16 -13 -28 -3 -9 7 -13 8 -10 3 4 -7 -14 -11 -50 -12 -31 -1 -70 -6 -85 -12 -16 -6 -39 -11 -52 -11 -13 0 -29 -8 -34 -17 -8 -14 -10 -14 -11 -3 0 11 -3 11 -12 2 -7 -7 -18 -12 -25 -12 -7 0 -32 -12 -54 -26 -24 -15 -48 -23 -57 -19 -9 3 -13 3 -10 -1 11 -10 -20 -36 -33 -28 -8 4 -9 3 -5 -4 4 -7 1 -12 -8 -12 -8 0 -16 -4 -18 -8 -5 -12 -82 -57 -91 -54 -5 1 -6 -2 -3 -7 6 -9 -48 -61 -64 -61 -5 0 -18 -15 -29 -34 -12 -19 -29 -37 -39 -40 -14 -5 -13 -3 2 9 11 8 15 15 9 15 -13 0 -26 -18 -29 -37 -1 -6 -16 -25 -33 -42 -17 -17 -31 -34 -31 -38 0 -4 -16 -24 -35 -43 -19 -19 -35 -40 -35 -48 0 -7 -5 -10 -10 -7 -6 4 -10 3 -9 -2 4 -22 -2 -34 -13 -27 -7 4 -10 4 -6 -1 4 -4 -7 -26 -25 -49 -17 -22 -25 -36 -17 -31 12 7 -8 -23 -30 -45 -3 -3 -18 -24 -33 -47 -15 -24 -32 -43 -37 -43 -6 0 -9 -3 -8 -7 2 -5 -5 -19 -15 -33 -9 -13 -17 -20 -17 -15 0 6 -8 -2 -18 -18 -10 -15 -22 -24 -25 -20 -4 3 -7 1 -7 -6 0 -7 -5 -9 -10 -6 -6 4 -9 2 -8 -3 4 -12 -38 -49 -63 -57 -11 -4 -19 -11 -19 -17 0 -5 -7 -7 -16 -4 -10 4 -13 2 -8 -6 5 -7 0 -9 -14 -6 -12 4 -22 2 -22 -2 0 -5 -19 -12 -42 -16 -24 -4 -46 -9 -50 -10 -5 -1 -29 -2 -55 -3 -25 0 -44 -4 -40 -7 14 -14 90 -21 143 -12 137 21 254 121 403 343 145 216 227 314 347 416 157 133 338 220 492 238 80 8 198 -1 231 -18 33 -18 32 2 -1 32 -59 52 -170 99 -246 104 -61 4 -65 3 -48 -11z"/> <path d="M1486 4635 c-3 -8 -10 -15 -16 -15 -6 0 -8 5 -4 12 4 7 3 8 -4 4 -6 -4 -9 -12 -6 -19 2 -7 -6 -19 -20 -27 -28 -14 -42 -40 -23 -40 13 0 97 80 97 93 0 13 -18 7 -24 -8z"/> <path d="M1471 4566 c-37 -38 -49 -56 -40 -61 8 -5 10 -4 5 3 -4 7 -2 12 3 12 6 0 25 15 43 33 17 17 28 25 24 17 -4 -8 0 -6 8 4 14 17 22 46 13 46 -1 0 -27 -24 -56 -54z"/> <path d="M1037 3963 c-104 -225 -186 -487 -187 -594 0 -20 -7 -56 -15 -79 -10 -29 -15 -78 -14 -149 1 -86 3 -99 10 -71 8 28 25 146 31 218 1 6 4 12 8 12 4 0 7 19 7 43 1 48 30 198 46 237 5 14 9 34 8 45 -1 12 5 34 13 50 9 17 19 45 22 63 3 17 11 32 16 32 6 0 8 6 5 14 -3 8 -2 16 3 18 5 2 11 13 13 25 1 11 9 29 17 38 7 9 15 28 16 42 2 15 10 31 19 35 8 5 13 13 10 18 -3 5 1 23 10 39 17 34 18 41 7 41 -5 0 -25 -35 -45 -77z"/> <path d="M1278 3730 c41 -37 54 -45 76 -41 4 1 14 -3 21 -9 8 -6 45 -12 83 -13 59 -2 69 -4 62 -17 -14 -25 -222 -235 -268 -269 -23 -18 -40 -37 -36 -42 3 -5 0 -9 -7 -9 -7 0 -10 -3 -6 -6 15 -15 131 83 272 229 85 89 155 166 155 170 0 5 -8 6 -17 2 -10 -5 -45 -14 -77 -21 -74 -16 -147 -4 -230 37 -33 16 -62 29 -65 29 -3 0 14 -18 37 -40z"/> <path d="M1500 3443 c-68 -47 -162 -94 -230 -114 -39 -12 -48 -28 -20 -37 8 -3 10 0 5 8 -6 10 -4 12 8 7 8 -3 39 3 68 13 28 11 56 17 60 14 5 -3 9 -1 9 4 0 5 10 12 21 15 l21 6 -21 -23 c-11 -12 -22 -31 -24 -43 -1 -11 -15 -39 -29 -60 -28 -43 -80 -186 -97 -268 -24 -121 -21 -259 7 -287 9 -9 12 19 11 108 -2 239 70 417 274 680 27 34 11 29 -63 -23z"/> <path d="M5097 3370 c-10 -10 -48 -33 -84 -51 -57 -29 -79 -35 -151 -38 -62 -2 -95 1 -128 14 -25 9 -47 15 -49 13 -2 -2 31 -40 73 -84 164 -172 242 -361 242 -588 0 -67 2 -77 15 -66 8 6 14 24 14 38 0 15 0 54 0 87 0 76 -3 109 -10 115 -3 3 -11 32 -18 65 -16 70 -80 203 -128 261 -34 42 -42 61 -21 48 7 -4 8 -3 4 4 -4 6 -13 9 -20 6 -9 -3 -17 3 -21 15 -4 13 -11 18 -18 14 -7 -4 -6 1 2 11 8 9 19 15 25 13 39 -15 246 47 246 74 0 5 7 9 15 9 8 0 15 6 15 14 0 8 5 16 12 18 6 2 9 9 7 15 -2 6 -11 3 -22 -7z"/> <path d="M5412 3140 c0 -25 4 -58 8 -75 6 -25 8 -20 8 25 0 30 -3 64 -8 75 -6 15 -8 9 -8 -25z"/> <path d="M1493 3011 c-79 -80 -136 -169 -164 -253 -27 -83 -17 -130 11 -53 28 76 55 126 65 118 4 -4 5 2 2 14 -3 13 -1 25 3 28 15 9 16 -28 3 -72 -6 -24 -15 -70 -19 -103 -3 -33 -11 -57 -16 -54 -8 5 -4 -25 8 -63 2 -7 -2 -13 -8 -13 -7 0 -6 -5 2 -15 7 -8 10 -32 8 -55 -2 -22 0 -41 3 -42 4 -2 9 -16 12 -33 3 -16 13 -48 23 -70 10 -22 17 -46 15 -54 -1 -7 2 -10 8 -6 6 3 18 -9 27 -28 9 -20 27 -40 40 -46 22 -10 22 -9 -6 35 -69 109 -107 258 -96 373 12 129 75 329 126 402 41 57 13 52 -47 -10z"/> <path d="M4760 2868 c60 -113 84 -205 85 -323 0 -127 -18 -206 -70 -310 -34 -67 -38 -81 -23 -77 11 2 17 7 14 9 -3 3 6 16 20 30 13 13 24 30 24 38 0 7 6 20 13 27 37 40 62 196 52 338 -4 58 -10 107 -14 110 -14 9 -22 48 -11 55 5 3 10 -2 10 -12 0 -15 2 -15 9 -4 8 12 11 9 16 -12 4 -15 10 -27 14 -27 12 0 32 -51 25 -62 -4 -7 -2 -8 4 -4 8 5 12 -1 12 -18 0 -14 11 -38 24 -53 l25 -28 -15 59 c-26 100 -70 175 -154 259 -43 42 -82 77 -88 77 -6 0 6 -33 28 -72z"/> <path d="M5411 2855 c-2 -168 -68 -475 -152 -715 -19 -52 -66 -160 -106 -239 -40 -80 -71 -147 -69 -149 5 -4 104 155 133 213 31 60 120 302 138 373 23 90 63 333 70 427 3 44 2 103 -4 130 -8 48 -9 46 -10 -40z"/> <path d="M1541 2550 c-31 -90 -38 -200 -17 -273 16 -56 28 -68 42 -45 4 6 3 8 -3 5 -6 -4 -11 9 -12 31 0 20 -3 62 -5 92 -4 62 17 131 29 95 3 -11 16 -39 27 -61 13 -26 18 -49 14 -60 -6 -15 -4 -16 5 -7 9 9 19 -3 45 -53 19 -37 30 -72 27 -81 -4 -9 -2 -14 3 -10 13 7 6 -61 -8 -91 -22 -44 -75 -73 -151 -84 -40 -5 -78 -10 -85 -11 -9 0 -10 -3 -2 -11 6 -6 42 -11 79 -11 58 0 75 4 116 30 98 61 115 156 50 277 -84 157 -106 205 -118 268 l-13 65 -23 -65z"/> <path d="M4683 2483 c-8 -43 -29 -100 -63 -166 -63 -123 -72 -176 -41 -240 35 -73 108 -105 186 -82 l40 12 -72 7 c-58 6 -76 13 -95 34 -12 14 -17 22 -9 17 9 -5 12 -4 7 3 -4 7 -13 12 -20 12 -17 0 -29 60 -20 97 15 59 64 154 75 147 7 -4 9 -3 5 4 -7 12 9 58 28 77 11 12 14 10 14 -12 0 -18 -3 -21 -9 -12 -6 10 -9 10 -9 2 0 -6 5 -15 11 -19 8 -5 10 -37 6 -108 -5 -98 -5 -100 10 -66 9 19 18 74 21 122 3 69 0 101 -17 157 -12 38 -25 72 -29 75 -5 3 -13 -25 -19 -61z"/> <path d="M5321 2156 c-12 -38 -34 -91 -47 -118 -14 -27 -23 -55 -21 -61 2 -7 15 11 29 38 33 65 71 180 66 197 -3 7 -15 -18 -27 -56z"/> <path d="M4432 1940 c3 -122 7 -141 31 -195 30 -65 84 -127 132 -152 26 -14 28 -14 18 -1 -7 8 -10 18 -6 21 3 4 -1 7 -11 7 -9 0 -15 4 -11 9 3 6 -3 15 -14 21 -28 15 -75 86 -93 141 -20 63 -25 177 -6 162 13 -11 18 -13 39 -13 5 0 8 -4 5 -9 -3 -4 22 -14 56 -21 73 -16 146 -4 202 32 57 37 45 53 -16 21 -42 -21 -67 -27 -125 -27 -64 -1 -76 2 -114 29 -23 17 -50 45 -60 63 -9 19 -21 37 -24 40 -4 4 -5 -54 -3 -128z"/> <path d="M1835 1965 c-91 -75 -223 -84 -339 -23 -36 20 -66 32 -66 27 0 -16 46 -52 99 -76 46 -22 63 -25 125 -20 75 6 109 12 126 22 12 8 4 -32 -17 -82 -24 -59 -28 -174 -8 -255 10 -40 25 -78 33 -85 8 -6 12 -15 9 -20 -3 -5 7 -16 23 -25 39 -22 46 -10 53 77 5 74 9 94 19 110 3 6 9 24 12 41 4 17 20 46 35 65 l29 34 11 -60 c7 -33 17 -75 22 -92 6 -18 7 -38 3 -44 -4 -8 -3 -9 4 -5 8 4 12 0 12 -11 1 -10 12 -36 26 -58 13 -22 27 -48 30 -57 4 -10 10 -16 14 -13 9 6 26 -34 21 -50 -1 -5 0 -7 4 -3 8 7 48 -36 58 -62 3 -8 6 -10 6 -4 1 6 24 -11 52 -37 48 -47 60 -54 70 -45 3 3 -34 45 -81 94 -143 150 -210 295 -213 459 l-2 82 -33 -32 c-87 -84 -150 -256 -126 -347 6 -22 8 -43 4 -45 -21 -13 -80 165 -80 241 0 64 36 191 75 261 19 35 31 63 27 63 -4 -1 -20 -12 -37 -25z"/> <path d="M4274 1833 c23 -80 13 -204 -24 -311 -25 -70 -93 -171 -159 -237 -56 -54 -62 -51 -30 14 11 23 25 69 31 102 10 60 3 185 -12 194 -4 2 -13 -21 -19 -53 -17 -85 -68 -184 -157 -303 -57 -75 -75 -105 -62 -105 9 0 15 2 13 4 -6 7 48 47 58 44 5 -1 6 2 2 7 -5 9 24 49 67 90 9 9 19 28 23 44 4 15 14 27 24 27 14 0 14 2 1 10 -8 5 -10 10 -4 10 6 0 16 10 22 23 l11 22 0 -22 c1 -13 -4 -23 -11 -23 -6 0 -9 -2 -6 -6 3 -3 0 -24 -7 -47 -23 -78 14 -108 68 -54 15 15 32 25 37 22 5 -3 12 0 16 6 4 8 3 9 -4 5 -24 -15 -11 6 23 35 19 17 35 37 35 44 0 8 6 20 13 27 15 17 35 48 42 66 15 38 18 48 16 60 -1 6 2 12 7 12 5 0 12 28 16 62 3 34 11 65 17 69 7 4 8 12 5 18 -4 6 -2 11 3 11 6 0 11 -9 11 -20 0 -11 4 -20 9 -20 6 0 23 -12 38 -26 51 -48 154 -91 187 -78 20 8 11 24 -13 24 -10 0 -45 14 -79 31 -74 36 -140 107 -173 183 -22 52 -47 78 -35 39z"/> <path d="M4977 1618 c-24 -35 -54 -71 -66 -82 -23 -21 -18 -44 6 -24 21 17 116 159 110 164 -2 3 -25 -23 -50 -58z"/> <path d="M2270 1529 c-18 -75 -7 -179 26 -248 32 -64 42 -54 23 22 -7 29 -12 58 -11 65 2 6 -1 12 -6 12 -6 0 -10 20 -9 44 1 45 1 45 19 24 17 -20 22 -33 19 -51 -1 -5 4 -5 10 -1 9 5 10 2 6 -10 -4 -10 -3 -15 3 -11 6 3 10 3 10 -2 0 -4 14 -23 31 -40 16 -18 28 -33 26 -33 -5 0 72 -78 78 -80 3 0 16 -12 29 -25 14 -14 30 -25 36 -25 6 0 9 -3 7 -7 -3 -5 6 -9 20 -9 20 -2 12 10 -53 70 -42 39 -97 98 -122 130 -49 64 -112 180 -112 209 0 36 -18 15 -30 -34z"/> <path d="M4700 1310 c-52 -53 -142 -134 -200 -180 -58 -46 -109 -90 -115 -96 -12 -14 -199 -122 -267 -155 -48 -23 -66 -46 -27 -34 14 5 19 4 15 -4 -5 -7 -1 -9 8 -5 9 3 16 10 16 15 0 4 40 29 90 54 98 51 231 141 227 154 -1 4 30 32 68 61 117 89 185 152 237 218 28 35 49 64 47 66 -2 2 -47 -40 -99 -94z"/> <path d="M4445 1185 c-28 -20 -52 -41 -54 -47 -2 -7 14 2 35 18 21 17 50 38 64 47 13 9 20 17 15 17 -6 0 -33 -16 -60 -35z"/> <path d="M2013 823 c20 -9 37 -20 37 -24 0 -5 7 -9 15 -9 28 0 15 18 -25 34 -22 9 -46 16 -53 15 -6 -1 5 -8 26 -16z"/> </g> </svg>